<svg xmlns="http://www.w3.org/2000/svg" viewBox="0 0 352.54 306.42"><defs><style>.cls-1{fill:#006db2;}.cls-2{fill:#fff;}.cls-3{fill:#ffd505;}</style></defs><title>Tischtennis_Logos</title><g id="Ebene_2" data-name="Ebene 2"><circle class="cls-1" cx="169.93" cy="145.73" r="113.39"></circle><path class="cls-2" d="M116.88,217.58l-8.2,10.68,3.81,2.92-1.67,2.18-10.21-7.84,1.67-2.18,3.8,2.92,8.2-10.68Z"></path><path class="cls-2" d="M105.67,215.44l-2.4-2.11a3.88,3.88,0,0,0,.91-2.46,3.49,3.49,0,0,0-1.08-2.25,3.62,3.62,0,0,0-2.12-1.27,2,2,0,0,0-1.68.49,1.52,1.52,0,0,0-.49.91,2.71,2.71,0,0,0,.3,1.34c.17.37.59,1.17,1.28,2.39a8.79,8.79,0,0,1,1.36,3.79,4.26,4.26,0,0,1-3.51,4.4,4.38,4.38,0,0,1-2.59-.35,8.15,8.15,0,0,1-2.59-1.93,6.84,6.84,0,0,1-2.18-4.26,4.74,4.74,0,0,1,1.49-3.63l2.35,2.28a2.79,2.79,0,0,0-.69,1.89,3.28,3.28,0,0,0,1,1.88,3.75,3.75,0,0,0,2,1.23,1.18,1.18,0,0,0,1.09-.31,1.27,1.27,0,0,0,.38-1,8.44,8.44,0,0,0-1.27-2.93,15.78,15.78,0,0,1-1.57-3.37,4.6,4.6,0,0,1,0-2.44,5.06,5.06,0,0,1,3.87-3.46,4.66,4.66,0,0,1,2.81.35,9.29,9.29,0,0,1,2.85,2.16,7.06,7.06,0,0,1,2.2,4.42A6.19,6.19,0,0,1,105.67,215.44Z"></path><path class="cls-2" d="M96.55,196.65,86.27,210.46l-2-3L92,197.44l-12.18,3.35-1.92-2.89,16.7-4.16Z"></path><path class="cls-2" d="M71.09,183.27l-1-3.12,8.38-2.6a19.47,19.47,0,0,0,2.56-.92,2.65,2.65,0,0,0,1.23-1.43,3.57,3.57,0,0,0-.07-2.25,3.24,3.24,0,0,0-1.17-1.83,2.24,2.24,0,0,0-1.58-.4,18.08,18.08,0,0,0-2.68.68l-8.56,2.65-1-3.12,8.13-2.52a21.74,21.74,0,0,1,4-1,4.55,4.55,0,0,1,2.23.33,5,5,0,0,1,1.83,1.43A8.29,8.29,0,0,1,84.86,172a8.84,8.84,0,0,1,.53,3.52,5,5,0,0,1-.77,2.23,4.39,4.39,0,0,1-1.44,1.41,20.44,20.44,0,0,1-3.83,1.52Z"></path><path class="cls-2" d="M82,162.82l-16.1,1.91-.37-3.17,10-7.86L64.78,155l-.36-3,16.09-1.91.39,3.26L71.17,161l10.5-1.24Z"></path><path class="cls-2" d="M80.66,143l-13.45-.65L67,147.16,64.24,147l.62-12.87,2.74.13-.23,4.8,13.45.64Z"></path><path class="cls-2" d="M81.36,132.86,65.5,129.49,68,117.74l2.68.57-1.81,8.55,3.51.75,1.69-8,2.67.57-1.69,8,4.32.91,1.88-8.85,2.67.56Z"></path><path class="cls-2" d="M84.71,118.2l-15-6.09,2.59-6.38a11.9,11.9,0,0,1,1.82-3.34,3.77,3.77,0,0,1,2.15-1.16,4.63,4.63,0,0,1,2.63.3,4.32,4.32,0,0,1,2.39,2.13,5.16,5.16,0,0,1,.19,3.54,7.2,7.2,0,0,1,1.91-1.12,18.78,18.78,0,0,1,3.14-.73l3.68-.65-1.48,3.63-4.15.86a22,22,0,0,0-2.86.71,2.48,2.48,0,0,0-1,.65,5.17,5.17,0,0,0-.79,1.46l-.25.62,6.27,2.54Zm-7.44-6.55.91-2.24a12.22,12.22,0,0,0,.92-2.8,1.72,1.72,0,0,0-.29-1.11,2.09,2.09,0,0,0-1-.76,1.89,1.89,0,0,0-1.39-.09,2,2,0,0,0-1,.9c-.13.23-.45,1-1,2.19l-1,2.37Z"></path><path class="cls-2" d="M91.13,103.28,77.41,94.66l2.79-4.45A19.07,19.07,0,0,1,82.48,87a4.3,4.3,0,0,1,2.58-1.13,5.05,5.05,0,0,1,3.17.89,5.19,5.19,0,0,1,1.84,1.79,4.47,4.47,0,0,1,.62,2,4.75,4.75,0,0,1-.25,1.84,19,19,0,0,1-1.61,3l-1.14,1.81,5.18,3.25Zm-9.66-9.94,3.89,2.45,1-1.52A8.65,8.65,0,0,0,87.48,92a2.17,2.17,0,0,0-.13-1.29,2.22,2.22,0,0,0-.87-1A2.08,2.08,0,0,0,85,89.34a2.25,2.25,0,0,0-1.3.73A15.88,15.88,0,0,0,82.31,92Z"></path><path class="cls-2" d="M99.43,90.67,87.26,80l7.35-8.33,2.06,1.81-5.19,5.88,2.88,2.53,4.47-5.07,2.06,1.81-4.47,5.08,5.17,4.55Z"></path><path class="cls-2" d="M119,71.93l-2.74,2.27-3.44-1.92-5,4.15,1.33,3.68-2.67,2.23L101,65.85l2.65-2.22Zm-8.74-1.07-5.56-3.19,2.17,6Z"></path><path class="cls-2" d="M120.54,71.14l-8.15-14,9.6-5.59,1.38,2.37-6.78,4,1.93,3.31,5.85-3.4,1.38,2.37-5.85,3.4,3.47,5.95Z"></path><path class="cls-2" d="M132.62,64.41l-5.89-15.1,10.35-4,1,2.56-7.31,2.85,1.4,3.57,6.3-2.46,1,2.56-6.31,2.45,2.5,6.42Z"></path><path class="cls-2" d="M145.51,59.61l-3.37-15.85,11.76-2.5.57,2.68-8.56,1.82.75,3.51,8-1.69.57,2.67-8,1.7.91,4.31L157,54.38l.57,2.67Z"></path><path class="cls-2" d="M160.31,56.71l-.56-16.19,3.18-.11,7,10.59-.37-10.82,3-.11.56,16.2-3.29.11L163,46.05l.36,10.56Z"></path><path class="cls-2" d="M176.52,56.44l2.35-16,3.24.48-.93,6.31,6.35.93.92-6.31,3.24.47-2.35,16-3.24-.47,1-7-6.34-.93-1,7Z"></path><path class="cls-2" d="M194.52,51.24a10.26,10.26,0,0,1,2.06-3.68,7.59,7.59,0,0,1,2.16-1.6,6.34,6.34,0,0,1,2.46-.69,8.83,8.83,0,0,1,3.51.54,7.61,7.61,0,0,1,4.68,4,8.48,8.48,0,0,1,0,6.54,8.46,8.46,0,0,1-4,5.1,8.52,8.52,0,0,1-10.82-3.75A8.36,8.36,0,0,1,194.52,51.24Zm3.22,1a6.06,6.06,0,0,0-.17,4.35,4.36,4.36,0,0,0,6.08,2.13,6.2,6.2,0,0,0,2.57-3.58,6.09,6.09,0,0,0,.21-4.33,4.13,4.13,0,0,0-2.61-2.36,4.19,4.19,0,0,0-3.54.24A6.1,6.1,0,0,0,197.74,52.25Z"></path><path class="cls-2" d="M209,65.22l7.92-14.14,9.69,5.43-1.34,2.4-6.84-3.84-1.87,3.35,5.9,3.31-1.34,2.39-5.9-3.31-3.37,6Z"></path><path class="cls-2" d="M220.85,72.14l10.09-12.69,9.41,7.49-1.71,2.14-6.84-5.44-2.24,2.81,6.37,5.07-1.7,2.13-6.37-5.06L225.12,72l7.08,5.64-1.7,2.13Z"></path><path class="cls-2" d="M232.5,81.7,244.63,71l2.11,2.38L243,85.48l8.1-7.17,2,2.27L241,91.33l-2.18-2.46L242.43,77l-7.92,7Z"></path><path class="cls-2" d="M255.36,103.57l2.45-1.22,3.15,6.31-5.78,2.89a8.91,8.91,0,0,1-2.9-1.89,10.73,10.73,0,0,1-2.44-3.2,8.85,8.85,0,0,1-1-4.44,6.84,6.84,0,0,1,1.46-3.9,9.81,9.81,0,0,1,3.44-2.78,9.23,9.23,0,0,1,4.5-1.06,7.09,7.09,0,0,1,4.09,1.43,8.37,8.37,0,0,1,2.45,3.11,7.73,7.73,0,0,1,1,4.78,5.73,5.73,0,0,1-2.16,3.52l-2-2.64a3.42,3.42,0,0,0,1.11-2,3.9,3.9,0,0,0-.44-2.42,4.42,4.42,0,0,0-2.74-2.44,5.69,5.69,0,0,0-4.17.67,6.3,6.3,0,0,0-3.3,3.08,4.27,4.27,0,0,0,.21,3.65,5.45,5.45,0,0,0,1.28,1.66,6.85,6.85,0,0,0,1.67,1.15l1.84-.92Z"></path><path class="cls-2" d="M254.11,115.31l15.58-4.48L273,122.38l-2.63.76L268,114.73l-3.45,1,2.25,7.81-2.63.76-2.25-7.82-4.24,1.22,2.51,8.7-2.63.76Z"></path><path class="cls-2" d="M258.05,129.83l16.12-1.68.71,6.85a11.46,11.46,0,0,1,0,3.8,3.64,3.64,0,0,1-1.34,2,4.69,4.69,0,0,1-2.47,1,4.3,4.3,0,0,1-3.11-.75,5.15,5.15,0,0,1-1.82-3,7.94,7.94,0,0,1-1.17,1.88A18.65,18.65,0,0,1,262.5,142l-2.93,2.3-.41-3.9,3.26-2.72a21.37,21.37,0,0,0,2.19-2,2.6,2.6,0,0,0,.57-1.05,5.52,5.52,0,0,0,0-1.66l-.07-.66-6.73.71Zm9.64,2.28.25,2.41a13.08,13.08,0,0,0,.51,2.91,1.8,1.8,0,0,0,.77.84,2.2,2.2,0,0,0,1.25.2,1.83,1.83,0,0,0,1.77-1.86c0-.27-.05-1.06-.19-2.38l-.27-2.54Z"></path><path class="cls-2" d="M259.56,145.93l16.14,1.44-.43,4.87-11.27,2,10.75,3.87-.43,4.89-16.15-1.44.27-3,12.71,1.13-12.42-4.34.27-3.14,13-2.06L259.29,149Z"></path><path class="cls-2" d="M257.43,164.56,273,169l-3.3,11.56-2.63-.75,2.39-8.41-3.45-1-2.23,7.83-2.63-.75,2.23-7.83-4.24-1.2-2.48,8.7-2.63-.75Z"></path><path class="cls-2" d="M253.09,179l14.57,7.1-3,6.19a11.83,11.83,0,0,1-2.05,3.2,3.63,3.63,0,0,1-2.22,1,4.63,4.63,0,0,1-2.6-.48,4.29,4.29,0,0,1-2.24-2.28,5.14,5.14,0,0,1,.06-3.54,8,8,0,0,1-2,1,18.42,18.42,0,0,1-3.18.52l-3.71.39,1.71-3.52,4.21-.58a23.42,23.42,0,0,0,2.89-.5,2.49,2.49,0,0,0,1-.59,5.56,5.56,0,0,0,.89-1.4l.29-.6-6.08-3Zm7,7L259,188.16a12.81,12.81,0,0,0-1.11,2.73,1.76,1.76,0,0,0,.22,1.13,2.15,2.15,0,0,0,.94.83,1.91,1.91,0,0,0,1.38.18,2,2,0,0,0,1.11-.83c.15-.22.52-.92,1.1-2.12l1.12-2.29Z"></path><path class="cls-2" d="M245.48,193.36l13.54,8.9L257.23,205l-13.55-8.9Z"></path><path class="cls-2" d="M242,198.87l12.3,10.55-2.07,2.42-12.53-2,8.21,7-2,2.3-12.31-10.54,2.14-2.5L248,208.06l-8-6.88Z"></path><path class="cls-2" d="M229.08,220.39l1.71,2.13-5.51,4.4-4-5a8.93,8.93,0,0,1,1.23-3.23,11,11,0,0,1,2.61-3.06,8.85,8.85,0,0,1,4.13-1.93,6.76,6.76,0,0,1,4.12.61,9.72,9.72,0,0,1,3.44,2.77,9.32,9.32,0,0,1,2,4.18,7.19,7.19,0,0,1-.55,4.3,8.3,8.3,0,0,1-2.52,3,7.73,7.73,0,0,1-4.47,2,5.75,5.75,0,0,1-3.89-1.37l2.15-2.51a3.48,3.48,0,0,0,2.19.67,3.85,3.85,0,0,0,2.27-.93,4.47,4.47,0,0,0,1.82-3.2,5.73,5.73,0,0,0-1.54-3.94,6.35,6.35,0,0,0-3.7-2.58,4.31,4.31,0,0,0-3.53,1,5.58,5.58,0,0,0-1.35,1.6,7.17,7.17,0,0,0-.78,1.87l1.29,1.61Z"></path><path class="cls-3" d="M138.08,122.79a.47.47,0,0,0-.48-.48H94.85a.45.45,0,0,0-.41.25L91,128.76a.47.47,0,0,0,.41.71h12.11a.22.22,0,0,1,.22.22V168a1.53,1.53,0,0,0,2.18,1.4l6.38-3.61a1.63,1.63,0,0,0,.93-1.66V129.69a.22.22,0,0,1,.22-.22H137.6a.47.47,0,0,0,.48-.48Z"></path><path class="cls-3" d="M175.21,130.62c-4.4,2.51-42.68,24-48.34,27.14-3.83,2.16-5.9.39-4.88-2.81l3.37-10.76c1.31-3.92,3.78-3.67,6.09-2.22,1.47.92,2.58.26,8.86-2.77,14.73-7.11,16.41-7.27,16.41-8.79a3.29,3.29,0,0,0-1.61-2.47L111.13,96a1.52,1.52,0,0,1-.31-2.14s18.85-25.07,55.28-26.29c31.54-1,46.74,13,48.76,15.27s-.57,3.61-.57,3.61-7.55,3.43-12.54,6.1c-3.06,1.63-4.53.48-3.72-3.12,1.32-5.85-.67-13.56-24.89-14.14-22.08-.53-37.48,7.72-43.22,11.66-1.88,1.29-1,2.17.42,3.25,0,0,40.63,30.57,44.59,33.48S179.09,128.39,175.21,130.62Z"></path><path class="cls-3" d="M231.61,95.24H208.3A1.33,1.33,0,0,0,207,96.57v1a1.32,1.32,0,0,0,1.32,1.32s.8,0,1.67,0c1.63,0,2.95.73,1.65,1.72-1.46,1.12-12.12,8.59-12.12,8.59a8.66,8.66,0,0,1-3.71,1.25c-2,0-4.32-1.9-4.32-1.9L179.2,98.85c-2.83-2.27-2-3.57-.31-3.61a1.32,1.32,0,0,0,1.3-1.32v-.83a1.36,1.36,0,0,0-1.32-1.46h-29A1.32,1.32,0,0,0,148.52,93v1a1.32,1.32,0,0,0,1.32,1.32h1.5a13.49,13.49,0,0,1,4.06,1.18l28.76,23.63h0a7.53,7.53,0,0,0,4.41,1.79c1.91,0,3.35-.8,8.48-3.8,2.28-1.33,31.76-18.18,33.25-19.14,1.77-1.14,2.6-1.57,2.6-2.33A1.23,1.23,0,0,0,231.61,95.24Z"></path><path class="cls-3" d="M131.46,200.88c-.08,5.9,3,7.9,7.88,8,7.42.09,11.86-3.9,12.18-12.19.12-3.23.2-19.42.22-22.33a.26.26,0,0,0-.4-.22l-2.07,1.16a.33.33,0,0,1-.49-.28v-8a1.48,1.48,0,0,1,.75-1.28l14.74-8.25a.43.43,0,0,1,.65.38v8a1.23,1.23,0,0,1-.63,1.07l-3.4,1.91a1.19,1.19,0,0,0-.61,1l-.18,29.78c-.05,8.52-9.77,17-20.45,16.84s-20.33-5-20.13-14l.19-10.31a.45.45,0,0,0-.66-.4l-8.17,4.35a.54.54,0,0,1-.73-.24L107.26,190a.53.53,0,0,1,.22-.69l23.65-13.12a.4.4,0,0,1,.58.35Z"></path><path class="cls-3" d="M243.58,160.94H195.81a1,1,0,0,0-.95.95v5.77a.5.5,0,0,0,.5.5h15.89a.73.73,0,0,1,.73.73v30.49a2.21,2.21,0,0,1-.82,1.72,47.3,47.3,0,0,1-9.64,6.35c-5.87,3.06-11,4.85-12.74,4.89a1.07,1.07,0,0,1-1.07-1.08V154.63a1.25,1.25,0,0,1,.63-1.09l28.83-16.49a1.72,1.72,0,0,1,2.17.42l4.63,5.75a16,16,0,0,1,2.66,5.36,1.28,1.28,0,0,0,.53.77,1.75,1.75,0,0,0,1.77,0l13.92-7.44a1.42,1.42,0,0,0,.41-2.1l-11.12-14c-3.45-4-6.17-3.12-9.83-1.07l-47.56,26.71c-1.33.79-1.77,1.44-1.75,2.74l0,66.13a2.71,2.71,0,0,0,2.71,2.7c3.94,0,20.26-4.54,29.1-8.67,10-4.68,18.29-10.94,21.63-16.21a7.6,7.6,0,0,0,1-3.43V168.83a.67.67,0,0,1,.67-.67h12.2a1.43,1.43,0,0,0,1.31-.88l2.38-5.77A.41.41,0,0,0,243.58,160.94Z"></path><path class="cls-2" d="M134.31,242l2.14,1a.81.81,0,0,0,.08.62,1.55,1.55,0,0,0,.81.5,2.36,2.36,0,0,0,1.22.15,1,1,0,0,0,.56-.37,3.1,3.1,0,0,0,.38-.87l.36-1.07a2.79,2.79,0,0,1-2.61.46,2.84,2.84,0,0,1-1.94-2,4.43,4.43,0,0,1,.13-2.7,4.32,4.32,0,0,1,1.83-2.55,3,3,0,0,1,2.54-.25,2.84,2.84,0,0,1,1.87,1.95l.34-1,1.83.61-2.18,6.63a7.16,7.16,0,0,1-.86,1.88,2.64,2.64,0,0,1-.94.82,2.73,2.73,0,0,1-1.23.23,5.65,5.65,0,0,1-1.72-.33,4.47,4.47,0,0,1-2.45-1.52,2.12,2.12,0,0,1-.25-1.89A1.86,1.86,0,0,1,134.31,242Zm3.17-3.76a2.78,2.78,0,0,0-.11,1.88,1.47,1.47,0,0,0,.94.91,1.62,1.62,0,0,0,1.4-.16,2.54,2.54,0,0,0,1-1.5,2.76,2.76,0,0,0,.09-1.86,1.63,1.63,0,0,0-1-.95,1.52,1.52,0,0,0-1.34.17A2.72,2.72,0,0,0,137.48,238.24Z"></path><path class="cls-2" d="M148.55,243l1.92.8a3.39,3.39,0,0,1-1.61,1.39,3.72,3.72,0,0,1-2.21.09,3.49,3.49,0,0,1-2.63-2,4.53,4.53,0,0,1-.14-2.78,4.33,4.33,0,0,1,1.68-2.72,3.34,3.34,0,0,1,2.74-.49,3.48,3.48,0,0,1,2.4,1.74,5,5,0,0,1,.14,3.64l-5-1.17A2.06,2.06,0,0,0,146,243a1.53,1.53,0,0,0,1,.76,1.22,1.22,0,0,0,.85-.07A1.67,1.67,0,0,0,148.55,243Zm.58-2a1.92,1.92,0,0,0-.14-1.43,1.36,1.36,0,0,0-.93-.69,1.42,1.42,0,0,0-1.2.22,1.87,1.87,0,0,0-.72,1.2Z"></path><path class="cls-2" d="M151.69,246.74l2.28.61a.83.83,0,0,0,.19.6,1.61,1.61,0,0,0,.89.35,2.48,2.48,0,0,0,1.23-.07,1.06,1.06,0,0,0,.48-.46,3.28,3.28,0,0,0,.22-.92l.16-1.13a2.76,2.76,0,0,1-2.48.92,2.86,2.86,0,0,1-2.27-1.66,4.51,4.51,0,0,1-.35-2.68,4.32,4.32,0,0,1,1.36-2.83,3.05,3.05,0,0,1,2.46-.69,2.83,2.83,0,0,1,2.18,1.59l.15-1.08,1.91.27-1,6.91a7.12,7.12,0,0,1-.52,2,2.46,2.46,0,0,1-.78,1,2.81,2.81,0,0,1-1.17.45,6.07,6.07,0,0,1-1.75,0,4.54,4.54,0,0,1-2.68-1.07,2.17,2.17,0,0,1-.58-1.82C151.65,246.91,151.67,246.83,151.69,246.74Zm2.46-4.26a2.78,2.78,0,0,0,.22,1.86,1.49,1.49,0,0,0,1.09.74,1.62,1.62,0,0,0,1.34-.41,2.57,2.57,0,0,0,.77-1.65,2.77,2.77,0,0,0-.24-1.85,1.62,1.62,0,0,0-1.17-.76,1.53,1.53,0,0,0-1.29.4A2.68,2.68,0,0,0,154.15,242.48Z"></path><path class="cls-2" d="M163.09,247.55l-2.05-.14.52-7.76,1.91.13-.07,1.1a3.34,3.34,0,0,1,.95-1,1.61,1.61,0,0,1,.9-.19,2.6,2.6,0,0,1,1.33.48l-.76,1.75a1.77,1.77,0,0,0-.94-.4,1.12,1.12,0,0,0-.75.19,1.66,1.66,0,0,0-.53.82,12.68,12.68,0,0,0-.34,2.59Z"></path><path class="cls-2" d="M166,247.71l.06-2.06,2.05.06-.05,2Z"></path><path class="cls-2" d="M179.08,247.38l-2.05.15-.56-7.73a7.1,7.1,0,0,1-2.54,1.74l-.13-1.86a5.94,5.94,0,0,0,1.67-1.12,3.73,3.73,0,0,0,1.17-1.81l1.67-.12Z"></path><path class="cls-2" d="M182,244.63l1.94-.53a1.48,1.48,0,0,0,.51.84,1.15,1.15,0,0,0,.85.16,1.31,1.31,0,0,0,1-.75,5,5,0,0,0,.19-2.49,2.44,2.44,0,0,1-1.78,1.19,2.91,2.91,0,0,1-2.31-.63,3.54,3.54,0,0,1-1.3-2.37,3.6,3.6,0,0,1,.55-2.75,3.52,3.52,0,0,1,5.13-.54,6.56,6.56,0,0,1,1.68,4,6.68,6.68,0,0,1-.42,4.37,3.55,3.55,0,0,1-2.61,1.72,3,3,0,0,1-2.11-.35A3.23,3.23,0,0,1,182,244.63Zm3.91-5.16a2.34,2.34,0,0,0-.69-1.46,1.38,1.38,0,0,0-1.13-.38,1.2,1.2,0,0,0-.87.59,3.07,3.07,0,0,0,.5,3,1.28,1.28,0,0,0,1.08.33,1.27,1.27,0,0,0,.92-.62A2.06,2.06,0,0,0,185.9,239.47Z"></path><path class="cls-2" d="M190,243l1.88-.7a1.9,1.9,0,0,0,.77,1,1.44,1.44,0,0,0,1.08.15,1.37,1.37,0,0,0,.92-.72,1.86,1.86,0,0,0,.12-1.37,1.74,1.74,0,0,0-.7-1.1A1.29,1.29,0,0,0,193,240a3.85,3.85,0,0,0-.89.37l-.17-1.68a1.84,1.84,0,0,0,1.15-.65,1.32,1.32,0,0,0,.19-1.1,1.16,1.16,0,0,0-.52-.76,1.13,1.13,0,0,0-.91-.11,1.23,1.23,0,0,0-.79.56,1.75,1.75,0,0,0-.19,1.15l-1.92.14a4.5,4.5,0,0,1,.21-1.66,2.74,2.74,0,0,1,.87-1.15,3.7,3.7,0,0,1,1.48-.7,3.2,3.2,0,0,1,2.59.36,2.48,2.48,0,0,1,1.15,1.56,2.52,2.52,0,0,1-1,2.56,2.5,2.5,0,0,1,1.65.51,2.53,2.53,0,0,1,.93,1.48,3.25,3.25,0,0,1-.43,2.59,3.88,3.88,0,0,1-4.81,1.33A3.24,3.24,0,0,1,190,243Z"></path><path class="cls-2" d="M198.88,232.31a2.93,2.93,0,0,1,2.67.28,9.63,9.63,0,0,1,2.77,8.3,2.93,2.93,0,0,1-1.95,1.81,3,3,0,0,1-2.78-.34c-.86-.55-1.62-1.81-2.28-3.76a7.08,7.08,0,0,1-.38-4.48A2.93,2.93,0,0,1,198.88,232.31Zm.55,1.62a1,1,0,0,0-.56.43,1.57,1.57,0,0,0-.16,1,11.94,11.94,0,0,0,.65,2.61,11.29,11.29,0,0,0,1,2.4,1.77,1.77,0,0,0,.75.74,1.05,1.05,0,0,0,.7,0,1,1,0,0,0,.56-.44,1.56,1.56,0,0,0,.16-1,11.45,11.45,0,0,0-.65-2.6,11.15,11.15,0,0,0-1-2.41,1.84,1.84,0,0,0-.75-.74A1,1,0,0,0,199.43,233.93Z"></path></g></svg>